# xmcd
#
# Track frame offsets:
#	150
#	15027
#	29457
#	43930
#	59007
#	78585
#	100497
#	118217
#	140630
#	163090
#	186782
#	202377
#	220347
#	248915
#	267180
#	283205
#	297547
#
# Disc length: 4093 seconds
#
# Revision: 1
# Processed by: cddbd v1.5.1PL0 Copyright (c) Steve Scherf et al.
# Submitted via: CDex 1.50Beta5
#
DISCID=180ffb11
DTITLE=Various Artist - OLDIES BUT GOLDIES
DYEAR=1900
DGENRE=Rock
TTITLE0=君は人のために死ねるか
TTITLE1=ダンシング・シスター
TTITLE2=ソイ
TTITLE3=ヘイ・ナウ・プリンセス
TTITLE4=トゥルース
TTITLE5=ストレンジャー・イン・タウン
TTITLE6=ドリーム・ポリス
TTITLE7=ミスター・クロウリー[死の番人]
TTITLE8=エヴリデイ・サンシャイン
TTITLE9=ケ・セラ・セラ
TTITLE10=ジムノペディ第1番[サティ]
TTITLE11=パラダイス
TTITLE12=アフリカン・レゲエ
TTITLE13=見張塔からずっと
TTITLE14=すべての若き野郎ども
TTITLE15=スローなブギにしてくれ[I want you]
TTITLE16=波の音
EXTD=
EXTT0=
EXTT1=
EXTT2=
EXTT3=
EXTT4=
EXTT5=
EXTT6=
EXTT7=
EXTT8=
EXTT9=
EXTT10=
EXTT11=
EXTT12=
EXTT13=
EXTT14=
EXTT15=
EXTT16=
PLAYORDER=
